# xmcd
#
# Track frame offsets: 
#        150
#        32505
#        52637
#        90649
#        107982
#        149909
#        188377
#
# Disc length: 2822 seconds
#
# Revision: 0
# Processed by: cddbd v1.5PL3 Copyright (c) Steve Scherf et al.
# Submitted via: ExactAudioCopy v0.95a4
#
DISCID=540b0407
DTITLE=Black Sabbath - Bloody Wizard [CD2]
DYEAR=1995
DGENRE=Hard Rock
TTITLE0=Sabbath Bloody Sabbath
TTITLE1=Can't Get Close Enough
TTITLE2=War Pigs
TTITLE3=The Mob Rules
TTITLE4=Black Sabbath
TTITLE5=Heaven And Hell
TTITLE6=Iron Man
EXTD=
EXTT0=
EXTT1=
EXTT2=
EXTT3=
EXTT4=
EXTT5=
EXTT6=
PLAYORDER=
